<?xml version="1.0" encoding="UTF-8" standalone="no"?>
<svg
   viewBox="0 0 2444.5195 520.70082"
   width="2444.5195"
   height="520.70081"
   version="1.1"
   id="svg298"
   sodipodi:docname="limits logo full.svg"
   inkscape:version="1.2.2 (b0a8486541, 2022-12-01)"
   inkscape:export-filename="limits logo full NONEDIT.svg"
   inkscape:export-xdpi="96"
   inkscape:export-ydpi="96"
   xmlns:inkscape="http://www.inkscape.org/namespaces/inkscape"
   xmlns:sodipodi="http://sodipodi.sourceforge.net/DTD/sodipodi-0.dtd"
   xmlns="http://www.w3.org/2000/svg"
   xmlns:svg="http://www.w3.org/2000/svg">
  <sodipodi:namedview
     id="namedview300"
     pagecolor="#ffffff"
     bordercolor="#000000"
     borderopacity="0.25"
     inkscape:showpageshadow="2"
     inkscape:pageopacity="0.0"
     inkscape:pagecheckerboard="0"
     inkscape:deskcolor="#d1d1d1"
     showgrid="false"
     inkscape:zoom="1"
     inkscape:cx="1401"
     inkscape:cy="200"
     inkscape:window-width="5120"
     inkscape:window-height="1392"
     inkscape:window-x="0"
     inkscape:window-y="0"
     inkscape:window-maximized="1"
     inkscape:current-layer="g280">
    <inkscape:page
       x="0"
       y="0"
       width="2444.5195"
       height="520.70081"
       id="page6970" />
    <inkscape:page
       x="3356.9999"
       y="-172"
       width="4.9999999"
       height="4.0000001"
       id="page6972" />
  </sodipodi:namedview>
  <desc
     id="desc2">limits - Sketch 1.dxf - scale = 1.000000, origin = (0.000000, 0.000000), method = manual</desc>
  <defs
     id="defs16">
    <marker
       id="DistanceX"
       orient="auto"
       refX="0"
       refY="0"
       style="overflow:visible">
      <path
         d="M 3,-3 -3,3 M 0,-5 V 5"
         style="stroke:#000000;stroke-width:0.5"
         id="path4" />
    </marker>
    <pattern
       id="Hatch"
       patternUnits="userSpaceOnUse"
       width="8"
       height="8"
       x="0"
       y="0">
      <path
         d="M8 4 l-4,4"
         stroke="#000000"
         stroke-width="0.25"
         linecap="square"
         id="path7" />
      <path
         d="M6 2 l-4,4"
         stroke="#000000"
         stroke-width="0.25"
         linecap="square"
         id="path9" />
      <path
         d="M4 0 l-4,4"
         stroke="#000000"
         stroke-width="0.25"
         linecap="square"
         id="path11" />
    </pattern>
    <symbol
       id="*MODEL_SPACE" />
    <symbol
       id="*PAPER_SPACE" />
  </defs>
  <g
     inkscape:groupmode="layer"
     inkscape:label="0"
     id="g18"
     transform="translate(833,-297)" />
  <g
     inkscape:groupmode="layer"
     inkscape:label="SECTION_CUTTING_LINE"
     id="g20"
     transform="translate(833,-297)" />
  <g
     inkscape:groupmode="layer"
     inkscape:label="DETAIL_VIEW_BORDER"
     id="g22"
     transform="translate(833,-297)" />
  <g
     inkscape:groupmode="layer"
     inkscape:label="DETAIL_VIEW_PARENT_BORDER"
     id="g24"
     transform="translate(833,-297)" />
  <g
     inkscape:groupmode="layer"
     inkscape:label="TEXT"
     id="g26"
     transform="translate(833,-297)" />
  <g
     inkscape:groupmode="layer"
     inkscape:label="SKETCHED_GEOMETRY"
     id="g28"
     transform="translate(833,-297)" />
  <g
     inkscape:groupmode="layer"
     inkscape:label="VIRTUAL_SHARPS"
     id="g30"
     transform="translate(833,-297)" />
  <g
     inkscape:groupmode="layer"
     inkscape:label="CENTERLINES"
     id="g32"
     transform="translate(833,-297)" />
  <g
     inkscape:groupmode="layer"
     inkscape:label="CENTERMARKS"
     id="g34"
     transform="translate(833,-297)" />
  <g
     inkscape:groupmode="layer"
     inkscape:label="TABLES"
     id="g36"
     transform="translate(833,-297)" />
  <g
     inkscape:groupmode="layer"
     inkscape:label="IMAGES"
     id="g38"
     transform="translate(833,-297)" />
  <g
     inkscape:groupmode="layer"
     inkscape:label="ANNOTATION_LINES"
     id="g40"
     transform="translate(833,-297)" />
  <g
     inkscape:groupmode="layer"
     inkscape:label="ANNOTATION_TEXT"
     id="g42"
     transform="translate(833,-297)" />
  <g
     inkscape:groupmode="layer"
     inkscape:label="SIDE_THREAD_SYMBOLS"
     id="g44"
     transform="translate(833,-297)" />
  <g
     inkscape:groupmode="layer"
     inkscape:label="SIDE_THREAD_SYMBOLS_HIDDEN"
     id="g46"
     transform="translate(833,-297)" />
  <g
     inkscape:groupmode="layer"
     inkscape:label="SURFACE_THREAD_SYMBOLS"
     id="g48"
     transform="translate(833,-297)" />
  <g
     inkscape:groupmode="layer"
     inkscape:label="SURFACE_THREAD_SYMBOLS_ON_"
     id="g50"
     transform="translate(833,-297)" />
  <g
     inkscape:groupmode="layer"
     inkscape:label="SURFACE_THREAD_SYMBOLS_HID"
     id="g52"
     transform="translate(833,-297)" />
  <g
     inkscape:groupmode="layer"
     inkscape:label="BLIND_THREAD_SYMBOLS"
     id="g54"
     transform="translate(833,-297)" />
  <g
     inkscape:groupmode="layer"
     inkscape:label="BLIND_THREAD_SYMBOLS_HIDDE"
     id="g56"
     transform="translate(833,-297)" />
  <g
     inkscape:groupmode="layer"
     inkscape:label="EXPLODE_LINES"
     id="g58"
     transform="translate(833,-297)" />
  <g
     inkscape:groupmode="layer"
     inkscape:label="HIDDEN_EXPLODE_LINES"
     id="g60"
     transform="translate(833,-297)" />
  <g
     inkscape:groupmode="layer"
     inkscape:label="BREAK_LINES"
     id="g62"
     transform="translate(833,-297)" />
  <g
     inkscape:groupmode="layer"
     inkscape:label="SHEETMETAL_BEND_LINES_UP"
     id="g64"
     transform="translate(833,-297)" />
  <g
     inkscape:groupmode="layer"
     inkscape:label="SHEETMETAL_BEND_LINES_DOWN"
     id="g66"
     transform="translate(833,-297)" />
  <g
     inkscape:groupmode="layer"
     inkscape:label="SHEETMETAL_BEND_TANGENT_LI"
     id="g68"
     transform="translate(833,-297)" />
  <g
     inkscape:groupmode="layer"
     inkscape:label="SHEETMETAL_CUT_LINES"
     id="g70"
     transform="translate(833,-297)" />
  <g
     inkscape:groupmode="layer"
     inkscape:label="SHEETMETAL_CBORE_CSINK_UP"
     id="g72"
     transform="translate(833,-297)" />
  <g
     inkscape:groupmode="layer"
     inkscape:label="SHEETMETAL_CBORE_CSINK_DOW"
     id="g74"
     transform="translate(833,-297)" />
  <g
     inkscape:groupmode="layer"
     inkscape:label="SHEETMETAL_CBORE_CSINK_UP_"
     id="g76"
     transform="translate(833,-297)" />
  <g
     inkscape:groupmode="layer"
     inkscape:label="SHEETMETAL_CBORE_CSINK_DO0"
     id="g78"
     transform="translate(833,-297)" />
  <g
     inkscape:groupmode="layer"
     inkscape:label="SHEETMETAL_FORM_TEAR"
     id="g80"
     transform="translate(833,-297)" />
  <g
     inkscape:groupmode="layer"
     inkscape:label="SHEETMETAL_FORM_UP"
     id="g82"
     transform="translate(833,-297)" />
  <g
     inkscape:groupmode="layer"
     inkscape:label="SHEETMETAL_FORM_DOWN"
     id="g84"
     transform="translate(833,-297)" />
  <g
     inkscape:groupmode="layer"
     inkscape:label="SHEETMETAL_FORM_CENTERMARK"
     id="g86"
     transform="translate(833,-297)" />
  <g
     inkscape:groupmode="layer"
     inkscape:label="REGION_ASSOC_POINTS"
     id="g88"
     transform="translate(833,-297)" />
  <g
     inkscape:groupmode="layer"
     inkscape:label="PATTERN_CENTERLINES"
     id="g90"
     transform="translate(833,-297)" />
  <g
     inkscape:groupmode="layer"
     inkscape:label="HIDDEN"
     id="g92"
     transform="translate(833,-297)" />
  <g
     inkscape:groupmode="layer"
     inkscape:label="VISIBLE"
     id="g94"
     transform="translate(833,-297)" />
  <g
     inkscape:groupmode="layer"
     inkscape:label="MODELSKETCH_VISIBLE"
     id="g280"
     transform="translate(833,-297)">
    <path
       id="path278"
       style="fill:#000000;fill-opacity:1;fill-rule:evenodd;stroke:#000000"
       d="m 1325.6377,368.374 c 0,-13.56796 10.999,-24.56694 24.5669,-24.56694 13.568,0 24.567,10.99898 24.567,24.56694 0,90.80079 73.6086,164.40937 164.4094,164.4094 13.568,0 24.5669,10.999 24.5669,24.56695 0,13.56795 -10.9989,24.56695 -24.5669,24.56695 -90.8008,3e-5 -164.4094,73.60867 -164.4094,164.4095 0,13.56796 -10.999,24.56694 -24.567,24.56694 -13.5679,0 -24.5669,-10.99898 -24.5669,-24.56694 0,-63.57295 28.325,-123.84038 77.2722,-164.41005 H 1161.23 c -13.5697,5.5e-4 -24.5686,-10.99845 -24.5686,-24.5664 0,-13.56795 10.9989,-24.56695 24.5686,-24.56555 h 241.6799 C 1353.9627,492.2143 1325.6377,431.94692 1325.6377,368.374 Z M 189.88977,502.1117 c 0,-13.56795 -10.99899,-24.56692 -24.56693,-24.56692 -13.56794,0 -24.56694,10.99897 -24.56694,24.56692 0,13.56795 10.999,24.56692 24.56694,24.56692 13.56794,0 24.56693,-10.99897 24.56693,-24.56692 z m -574.48819,0 c 0,-13.56795 -10.99899,-24.56692 -24.56693,-24.56692 -13.56794,0 -24.56693,10.99897 -24.56693,24.56692 0,13.56795 10.99899,24.56692 24.56693,24.56692 13.56794,0 24.56693,-10.99897 24.56693,-24.56692 z m 841.88993,210.1969 c -20.87392,0.002 -37.79546,-16.91913 -37.79765,-37.79265 v -185.1984 c 0.002,-10.43554 8.46291,-18.89633 18.8988,-18.89385 h 142.6786 c 32.33196,-0.0335 58.52601,-26.25279 58.52601,-58.58515 0,-32.33236 -26.19405,-58.55161 -58.52601,-58.5825 H 208.78753 c -37.57288,-1.5e-4 -68.03163,30.45859 -68.03175,68.03135 v 11.3393 c -29.44674,10.41036 -49.133681,38.25193 -49.133681,69.48505 0,31.23312 19.686941,59.07469 49.133681,69.4851 v 102.9191 c 1.4e-4,20.87351 -16.92138,37.79505 -37.79515,37.79505 -20.873762,0 -37.79529,-16.92153 -37.795127,-37.79505 V 421.2868 C 65.165355,383.71464 34.70662,353.2559 -2.8662428,353.25605 H -78.456523 c -37.572927,-1.5e-4 -68.031657,30.45859 -68.031737,68.03075 v 253.22915 c 9e-5,20.87352 -16.92143,37.79505 -37.7952,37.79505 -20.87376,0 -37.79528,-16.92154 -37.79507,-37.79505 V 421.2862 c -2e-4,-37.57276 -30.45894,-68.0315 -68.03175,-68.03075 l -75.59028,6e-4 c -37.57298,-1.5e-4 -68.03172,30.45859 -68.03175,68.03075 l 3e-5,11.3392 c -29.44686,10.41106 -49.1338,38.25263 -49.1338,69.48575 0,31.23312 19.68694,59.07469 49.13377,69.4851 v 102.9191 c 4e-5,20.87351 -16.92148,37.79505 -37.79514,37.79265 h -226.77177 c -20.87376,0.002 -37.79528,-16.91913 -37.79524,-37.79265 V 377.8228 c -5e-5,-13.56793 -10.99903,-24.5669 -24.56696,-24.5669 -13.56793,0 -24.5669,10.99897 -24.56692,24.5669 v 296.69315 c -4e-5,48.00941 38.91947,86.92895 86.92911,86.9296 h 226.77178 c 48.00956,-6.5e-4 86.92907,-38.92019 86.92907,-86.9296 v -102.9191 c 29.44682,-10.41041 49.13376,-38.25198 49.13376,-69.4851 0,-31.23312 -19.68694,-59.07469 -49.13376,-69.48565 v -11.3393 c -7e-5,-10.4363 8.4607,-18.8971 18.89782,-18.89885 l 75.59028,-6e-4 c 10.43695,10e-4 18.89772,8.46195 18.89782,18.89885 v 253.22975 c -1.7e-4,48.00941 38.91934,86.92895 86.929,86.92895 48.00966,0 86.929177,-38.91954 86.929127,-86.92895 V 421.2868 c -2e-5,-10.4363 8.46074,-18.8971 18.89781,-18.89885 l 75.5902802,-6e-4 c 10.4370034,10e-4 18.8977698,8.46195 18.8978158,18.89885 v 253.22975 c -1.16e-4,48.00941 38.919397,86.92895 86.929057,86.92895 48.00967,0 86.92918,-38.91954 86.92909,-86.92895 v -102.9191 c 29.44691,-10.41041 49.13385,-38.25198 49.13385,-69.4851 0,-31.23312 -19.68694,-59.07469 -49.13385,-69.48565 l -1e-5,-11.3393 c 3e-5,-10.4363 8.4608,-18.8971 18.89782,-18.89885 h 372.28373 c 5.21806,0.002 9.44845,4.23214 9.44845,9.4506 0,5.21846 -4.23039,9.44885 -9.44845,9.44825 h -142.6786 c -37.57172,6.5e-4 -68.0304,30.45938 -68.0307,68.03075 v 185.1984 c 2.6e-4,48.0094 38.91975,86.92893 86.92955,86.9296 h 465.8284 c 48.0079,-6.7e-4 86.92739,-38.9202 86.92739,-86.92985 -10e-5,-48.00961 -38.91953,-86.92908 -86.92739,-86.9293 h -170.0794 c -20.87492,2.1e-4 -37.79646,-16.92133 -37.79765,-37.79265 V 440.1856 c 0.001,-20.87437 16.92273,-37.79591 37.79765,-37.79765 h 232.4405 c 13.56727,0.002 24.56619,-10.99723 24.56629,-24.56515 -10e-5,-13.56792 -10.99902,-24.56688 -24.56629,-24.56675 h -232.4405 c -48.01076,-1.3e-4 -86.93023,38.91934 -86.92955,86.92955 l 7e-4,109.60815 c -4e-5,48.0072 38.91945,86.92673 86.92955,86.9246 h 170.0787 c 20.87195,0.002 37.79341,16.92365 37.79345,37.79735 10e-6,20.87373 -16.92147,37.79526 -37.79345,37.7929 z"
       sodipodi:nodetypes="csccsccscccscccsssssssssscccccsccccsccccccccccccccccscccccccccccccsccccccccccccccccsccccsccccccccccccccccccccccc" />
  </g>
  <g
     inkscape:groupmode="layer"
     inkscape:label="MODELSKETCH_POINT"
     id="g282"
     transform="translate(833,-297)" />
  <g
     inkscape:groupmode="layer"
     inkscape:label="MODELSKETCH_CONSTRUCTION"
     id="g284"
     transform="translate(833,-297)" />
  <g
     inkscape:groupmode="layer"
     inkscape:label="HIDDEN_BASE_VIEW"
     id="g286"
     transform="translate(833,-297)" />
  <g
     inkscape:groupmode="layer"
     inkscape:label="TANGENT_LINES"
     id="g288"
     transform="translate(833,-297)" />
  <g
     inkscape:groupmode="layer"
     inkscape:label="TANGENT_HIDDEN"
     id="g290"
     transform="translate(833,-297)" />
  <g
     inkscape:groupmode="layer"
     inkscape:label="INVISIBLE_LINES"
     id="g292"
     transform="translate(833,-297)" />
  <g
     inkscape:groupmode="layer"
     inkscape:label="VIEW_HATCHES"
     id="g294"
     transform="translate(833,-297)" />
  <g
     inkscape:groupmode="layer"
     inkscape:label="SECTION_JOG_LINES"
     id="g296"
     transform="translate(833,-297)" />
</svg>
